<svg width="28" height="29" fill="none" xmlns="http://www.w3.org/2000/svg">
    <g clip-path="url(#a)">
        <path d="M25.514 2.256 15.808.545a3.011 3.011 0 0 0-3.484 2.44l-.23 1.308c-.116.017-.23.04-.344.07L2.23 6.916a2.988 2.988 0 0 0-1.826 1.4 2.988 2.988 0 0 0-.3 2.283l4.198 15.67a2.988 2.988 0 0 0 1.402 1.826 2.99 2.99 0 0 0 2.282.3l9.52-2.55a2.988 2.988 0 0 0 1.826-1.401c.119-.207.212-.424.278-.647l2.042.36a3.013 3.013 0 0 0 3.484-2.44L27.954 5.74a3.011 3.011 0 0 0-2.44-3.484Zm-7.467 20.329c.095.353.046.721-.136 1.037a1.358 1.358 0 0 1-.83.637L7.56 26.81a1.357 1.357 0 0 1-1.037-.137 1.358 1.358 0 0 1-.637-.83l-4.199-15.67a1.358 1.358 0 0 1 .137-1.037c.183-.316.477-.542.83-.637l9.52-2.55a1.359 1.359 0 0 1 1.037.137c.316.182.542.476.637.83l4.198 15.669Zm-1.643-12.47.02-.14a1.038 1.038 0 0 1 1.201-.841c.382.067.692.34.808.71a.82.82 0 0 0 1.433.253 1.034 1.034 0 0 1 1.672.035c.158.227.22.502.171.774-.326 1.85-2.411 3.425-3.448 4.104-.26-.348-.603-.844-.925-1.42l-.932-3.476Zm9.934-4.66L23.52 21.431a1.369 1.369 0 0 1-1.584 1.11l-2.312-.408-1.404-5.238a.819.819 0 0 0 .243-.086c.175-.096 4.289-2.372 4.86-5.618a2.68 2.68 0 0 0-3.89-2.83 2.67 2.67 0 0 0-1.524-.843 2.659 2.659 0 0 0-2 .444c-.024.016-.046.033-.069.05l-.408-1.521a2.988 2.988 0 0 0-1.712-1.983l.219-1.239c.13-.742.841-1.24 1.584-1.109l9.705 1.712c.742.13 1.24.84 1.109 1.583Z" fill="#6F6E7C"/>
    </g>
    <defs>
        <clipPath id="a">
            <path fill="#fff" transform="translate(0 .5)" d="M0 0h28v28H0z"/>
        </clipPath>
    </defs>
</svg>
