<svg fill="none" height="29" width="28" xmlns="http://www.w3.org/2000/svg" xmlns:xlink="http://www.w3.org/1999/xlink"><clipPath id="a"><path d="m0 0h28v28h-28z" transform="translate(0 .5)"/></clipPath><g clip-path="url(#a)"><path d="m25.514 2.256-9.706-1.711a3.011 3.011 0 0 0 -3.484 2.44l-.23 1.308c-.116.017-.23.04-.344.07l-9.52 2.553a2.988 2.988 0 0 0 -1.826 1.4 2.988 2.988 0 0 0 -.3 2.283l4.198 15.67a2.988 2.988 0 0 0 1.402 1.826 2.99 2.99 0 0 0 2.282.3l9.52-2.55a2.988 2.988 0 0 0 1.826-1.401c.119-.207.212-.424.278-.647l2.042.36a3.013 3.013 0 0 0 3.484-2.44l2.818-15.977a3.011 3.011 0 0 0 -2.44-3.484zm-7.467 20.329c.095.353.046.721-.136 1.037a1.358 1.358 0 0 1 -.83.637l-9.521 2.551a1.357 1.357 0 0 1 -1.037-.137 1.358 1.358 0 0 1 -.637-.83l-4.199-15.67a1.358 1.358 0 0 1 .137-1.037c.183-.316.477-.542.83-.637l9.52-2.55a1.359 1.359 0 0 1 1.037.137c.316.182.542.476.637.83l4.198 15.669zm-1.643-12.47.02-.14a1.038 1.038 0 0 1 1.201-.841c.382.067.692.34.808.71a.82.82 0 0 0 1.433.253 1.034 1.034 0 0 1 1.672.035c.158.227.22.502.171.774-.326 1.85-2.411 3.425-3.448 4.104-.26-.348-.603-.844-.925-1.42l-.932-3.476zm9.934-4.66-2.818 15.976a1.369 1.369 0 0 1 -1.584 1.11l-2.312-.408-1.404-5.238a.819.819 0 0 0 .243-.086c.175-.096 4.289-2.372 4.86-5.618a2.68 2.68 0 0 0 -3.89-2.83 2.67 2.67 0 0 0 -1.524-.843 2.659 2.659 0 0 0 -2 .444c-.024.016-.046.033-.069.05l-.408-1.521a2.988 2.988 0 0 0 -1.712-1.983l.219-1.239c.13-.742.841-1.24 1.584-1.109l9.705 1.712c.742.13 1.24.84 1.109 1.583z" fill="#6f6e7c"/></g></svg>